<svg width="81" height="48" viewBox="0 0 81 48" fill="none" xmlns="http://www.w3.org/2000/svg">
<path d="M45.8721 47.9894H23.0939C10.3394 47.9894 0 37.6143 0 24.8158V1.95892C0 0.88181 0.868192 0.0106201 1.94159 0.0106201H9.62904C10.7024 0.0106201 11.5706 0.88181 11.5706 1.95892V23.9921C11.5706 30.8349 17.0955 36.3788 23.9147 36.3788C30.7182 36.3788 36.2431 30.8349 36.2431 24.0079V1.95892C36.2431 0.88181 37.1113 0.0106201 38.1847 0.0106201H45.8721C46.9455 0.0106201 47.8137 0.88181 47.8137 1.95892V46.0411C47.8137 47.1182 46.9455 47.9894 45.8721 47.9894Z" fill="white"/>
<path d="M80.584 9.10437C80.584 12.3991 78.4214 15.2819 75.2802 16.2164L64.0726 19.5428C59.337 20.9526 54.5698 17.3886 54.5698 12.4307C54.5698 9.50037 56.2904 6.83928 58.9581 5.65129L68.6503 1.32702C74.2541 -1.17567 80.5682 2.94269 80.5682 9.10437H80.584Z" fill="white"/>
</svg>
