<svg width="59" height="51" viewBox="0 0 59 51" fill="none" xmlns="http://www.w3.org/2000/svg">
<path d="M30.7161 12.5471L30.8083 12.5746L30.8129 12.5694C31.1916 12.6315 31.5644 12.4031 31.6757 12.0274C32.668 8.6932 35.7944 6.36378 39.2775 6.36378C39.7035 6.36378 40.049 6.01825 40.049 5.59224C40.049 5.16621 39.7035 4.8207 39.2775 4.8207C34.9742 4.8207 31.3581 7.68586 30.197 11.5877C30.0752 11.9962 30.3079 12.4254 30.7161 12.5471Z" fill="#0D54C9" stroke="#F9FFF9" stroke-width="0.3"/>
<path d="M47.9788 36.0471H44.2497C43.9065 36.0471 43.6281 35.7687 43.6281 35.4256C43.6281 35.0824 43.9065 34.804 44.2497 34.804H47.9788C53.1192 34.804 57.3017 30.6215 57.3017 25.4811C57.3017 20.3406 53.1192 16.1581 47.9788 16.1581H47.8891C47.7089 16.1581 47.5375 16.08 47.4194 15.9437C47.3013 15.8074 47.248 15.6267 47.2738 15.4482C47.3293 15.0611 47.3573 14.6722 47.3573 14.2935C47.3573 9.83852 43.7323 6.21361 39.2773 6.21361C37.5441 6.21361 35.8913 6.75523 34.4973 7.78029C34.1909 8.00538 33.7559 7.90549 33.5787 7.56853C29.6307 0.0507084 19.3189 -0.958858 13.9727 5.58099C11.7206 8.33613 10.8357 11.9201 11.5448 15.4132C11.6229 15.799 11.3277 16.1586 10.9357 16.1586H10.6866C5.54615 16.1586 1.36366 20.3411 1.36366 25.4816C1.36366 30.622 5.54615 34.8045 10.6866 34.8045H14.4157C14.7589 34.8045 15.0373 35.0828 15.0373 35.426C15.0373 35.7692 14.7589 36.0476 14.4157 36.0476H10.6866C4.86061 36.0476 0.120544 31.3075 0.120544 25.4815C0.120544 19.8189 4.59819 15.1823 10.1987 14.9266C9.67262 11.3026 10.6786 7.64708 13.0102 4.79432C18.734 -2.20809 29.7033 -1.42322 34.3403 6.38498C35.8196 5.45756 37.5123 4.97105 39.2771 4.97105C44.6747 4.97105 48.9517 9.56507 48.5774 14.9324C54.1264 15.2436 58.5446 19.8558 58.5446 25.4811C58.5446 31.3075 53.8045 36.0471 47.9785 36.0471L47.9788 36.0471Z" fill="#0D54C9"/>
<path d="M13.5608 35.0746C13.5608 43.7254 20.5985 50.763 29.2492 50.763C37.9 50.763 44.9377 43.7253 44.9377 35.0746C44.9377 26.4238 37.9 19.3861 29.2492 19.3861C20.5984 19.3861 13.5608 26.4239 13.5608 35.0746ZM15.1041 35.0746C15.1041 27.2752 21.4498 20.9295 29.2492 20.9295C37.0486 20.9295 43.3943 27.2751 43.3943 35.0746C43.3943 42.8739 37.0486 49.2197 29.2492 49.2197C21.4499 49.2197 15.1041 42.874 15.1041 35.0746Z" fill="#0D54C9" stroke="#F9FFF9" stroke-width="0.3"/>
<path d="M28.9285 41.3299C28.9285 41.664 29.1995 41.9349 29.5336 41.9349C29.8676 41.9349 30.1386 41.6644 30.1386 41.3299V29.499C30.1386 29.1649 29.8676 28.8939 29.5336 28.8939C29.1995 28.8939 28.9285 29.1649 28.9285 29.499V41.3299Z" fill="#0D54C9" stroke="#0D54C9" stroke-width="0.3"/>
<path d="M33.4956 33.462L33.6019 33.5679C33.4836 33.6865 33.3281 33.7453 33.1739 33.7453L33.4956 33.462ZM33.4956 33.462C33.4069 33.5511 33.2902 33.5953 33.1739 33.5953L33.4956 33.462ZM33.4956 33.462L33.6017 33.5681C33.838 33.3317 33.838 32.9488 33.6017 32.7124L29.9615 29.0722C29.7252 28.8359 29.3419 28.8357 29.1058 29.0722C29.1058 29.0722 29.1058 29.0722 29.1057 29.0722C29.1057 29.0722 29.1057 29.0723 29.1057 29.0723L25.4656 32.7124C25.2292 32.9488 25.2292 33.3317 25.4656 33.5681C25.7019 33.8044 26.0852 33.8045 26.3213 33.568C26.3213 33.568 26.3213 33.568 26.3213 33.568L29.5336 30.3557M33.4956 33.462L29.5336 30.3557M29.5336 30.3557L32.746 33.5681C32.864 33.6861 33.0193 33.7453 33.1738 33.7453L29.5336 30.3557Z" fill="#0D54C9" stroke="#0D54C9" stroke-width="0.3"/>
</svg>
