<svg width="56" height="54" viewBox="0 0 56 54" fill="none" xmlns="http://www.w3.org/2000/svg">
<rect opacity="0.1" x="0.620667" width="55.2186" height="54" rx="10" fill="#1D1D1D"/>
<path d="M11.8207 27.3809C11.8207 23.7511 11.8207 20.1214 11.8207 16.4916C11.8207 14.8974 12.6999 13.663 14.1594 13.178C14.5395 13.0558 14.9374 12.9957 15.3374 13.0002C22.7512 13.0002 30.1641 13.0002 37.5761 13.0002C39.6134 13.0002 41.0798 14.4303 41.0919 16.4236C41.1058 18.769 41.0971 21.1144 41.0919 23.4599C41.0919 24.075 40.7229 24.4085 40.1391 24.3395C39.706 24.2885 39.4462 23.9993 39.4462 23.5263C39.4401 22.4433 39.4462 21.3612 39.4462 20.2782C39.4462 19.0259 39.4462 17.7737 39.4462 16.5214C39.4462 15.3423 38.7325 14.6396 37.532 14.6379C35.7702 14.6379 34.0093 14.6455 32.2484 14.6294C31.9365 14.6294 31.875 14.7315 31.8759 15.0079C31.8811 16.5035 31.9824 17.9991 31.8759 19.4955C31.7893 20.6636 31.1613 21.476 30.0769 21.738C29.5158 21.8794 28.9211 21.808 28.4113 21.5381C27.8474 21.2472 27.2852 20.9605 26.7257 20.6559C26.6591 20.6132 26.5813 20.5905 26.5018 20.5905C26.4223 20.5905 26.3445 20.6132 26.2779 20.6559C25.7201 20.9565 25.1579 21.25 24.5915 21.5364C24.2282 21.7262 23.821 21.8199 23.4097 21.8086C22.9984 21.7972 22.5972 21.681 22.2454 21.4714C21.8937 21.2619 21.6033 20.9661 21.403 20.6132C21.2026 20.2602 21.0991 19.8622 21.1026 19.4581C21.0982 17.9506 21.0956 16.444 21.1069 14.9365C21.1069 14.6974 21.0411 14.6336 20.7994 14.6353C18.9727 14.6447 17.1468 14.6353 15.3209 14.6421C14.2036 14.6464 13.4717 15.3644 13.4708 16.4601C13.4708 23.7406 13.4708 31.0214 13.4708 38.3025C13.4708 39.4373 14.2105 40.1349 15.4049 40.1349C22.1368 40.1349 28.8686 40.1349 35.6004 40.1349C36.1626 40.1349 36.4527 40.3255 36.5532 40.756C36.5857 40.8688 36.5923 40.9873 36.5728 41.1029C36.5532 41.2186 36.5079 41.3286 36.4401 41.4251C36.3722 41.5215 36.2835 41.6021 36.1803 41.661C36.0771 41.7199 35.9619 41.7557 35.8429 41.7658C35.7459 41.7743 35.6484 41.7769 35.551 41.7734C28.8406 41.7734 22.1301 41.7734 15.4197 41.7734C13.5695 41.7734 12.1724 40.6726 11.8684 38.966C11.8303 38.7035 11.8153 38.4382 11.8233 38.1732C11.8205 34.5769 11.8196 30.9794 11.8207 27.3809ZM30.2441 17.1705C30.2441 16.4176 30.2389 15.6647 30.2484 14.9127C30.2484 14.7153 30.2059 14.6353 29.9833 14.6362C27.6626 14.6436 25.3421 14.6436 23.022 14.6362C22.802 14.6362 22.7491 14.7076 22.75 14.9093C22.7569 16.404 22.75 17.8987 22.7561 19.3934C22.7604 20.0672 23.3009 20.3701 23.9159 20.0536C24.5308 19.7371 25.1579 19.4173 25.7712 19.0846C26.2701 18.8132 26.7508 18.8209 27.2437 19.0846C27.8188 19.4002 28.4251 19.6631 28.9821 20.0077C29.6966 20.4509 30.3073 19.937 30.2553 19.2684C30.2016 18.5725 30.2441 17.8698 30.2441 17.1705Z" fill="#1D1D1D"/>
<path d="M44.4003 32.4461C44.4124 35.6789 42.1803 39.0069 37.7222 38.9967C33.264 38.9865 31.077 35.6525 31.0891 32.4036C31.1038 28.6604 33.9708 25.8318 37.7464 25.8437C41.548 25.853 44.4072 28.6893 44.4003 32.4461ZM37.736 37.3463C40.616 37.3463 42.7693 35.2595 42.7936 32.4427C42.8187 29.6566 40.6386 27.5213 37.7638 27.5145C34.8638 27.5068 32.6932 29.6141 32.6958 32.4334C32.6984 35.2527 34.8569 37.3421 37.736 37.3429V37.3463Z" fill="#1D1D1D"/>
<path d="M19.7148 32.5414C18.5498 32.5414 17.3848 32.5465 16.2189 32.5414C15.5918 32.5371 15.2246 32.0395 15.4021 31.4627C15.5104 31.1139 15.7807 30.9191 16.2155 30.908C16.6789 30.8969 17.1431 30.908 17.6074 30.908C19.4411 30.908 21.2756 30.908 23.1101 30.908C23.7234 30.908 24.0629 31.2228 24.043 31.7587C24.0291 32.2411 23.7061 32.5431 23.1768 32.5456C22.024 32.5448 20.8694 32.5414 19.7148 32.5414Z" fill="#1D1D1D"/>
<path d="M19.7147 36.7636C18.5367 36.7636 17.3596 36.7712 16.1816 36.7636C15.5753 36.7576 15.2245 36.2531 15.4021 35.6857C15.5112 35.3454 15.7789 35.1549 16.1929 35.1515C17.0461 35.1455 17.9001 35.1515 18.7533 35.1515C20.2336 35.1515 21.7138 35.1515 23.1941 35.1515C23.7493 35.1515 24.0663 35.4917 24.0395 36.0124C24.0152 36.482 23.7095 36.7619 23.1803 36.7653C22.0248 36.7729 20.8685 36.7653 19.7156 36.7653L19.7147 36.7636Z" fill="#1D1D1D"/>
<path d="M37.0086 34.6511C36.8294 34.6518 36.6518 34.617 36.4866 34.5487C36.3214 34.4805 36.172 34.3802 36.0472 34.2538C35.6487 33.865 35.2494 33.478 34.8579 33.0832C34.4664 32.6885 34.4673 32.2478 34.8155 31.9007C35.1637 31.5536 35.6297 31.5604 36.0186 31.9237C36.2836 32.173 36.5495 32.4231 36.7981 32.6893C36.9549 32.8595 37.0484 32.8757 37.2251 32.697C37.9605 31.9509 38.7132 31.2201 39.4642 30.4851C39.8479 30.1117 40.2792 30.0938 40.643 30.4213C41.0068 30.7488 41.0501 31.2108 40.7114 31.5511C39.7847 32.4869 38.8414 33.4031 37.8955 34.3176C37.7782 34.429 37.6391 34.5159 37.4867 34.5732C37.3343 34.6305 37.1717 34.657 37.0086 34.6511Z" fill="#1D1D1D"/>
</svg>
