<svg width="56" height="54" viewBox="0 0 56 54" fill="none" xmlns="http://www.w3.org/2000/svg">
<rect opacity="0.1" width="55.2186" height="54" rx="10" fill="#1D1D1D"/>
<path d="M10.1815 16.6482C10.3154 16.2748 10.4521 15.9041 10.7559 15.6151C10.9563 15.417 11.1974 15.2602 11.4641 15.1544C11.7309 15.0487 12.0177 14.9962 12.3066 15.0002H31.8007C33.2562 15.0002 34.1004 15.8005 34.1013 17.1779C34.1013 18.5368 34.1078 19.8958 34.0958 21.2547C34.0958 21.5068 34.1549 21.5841 34.4329 21.5824C36.1877 21.5692 37.936 21.5824 39.6871 21.5718C40.6947 21.5639 41.3883 21.9821 41.8335 22.8377C42.9609 25.0045 44.1 27.1666 45.2508 29.3241C45.4819 29.7399 45.5979 30.2049 45.5879 30.6751C45.562 31.7705 45.5786 32.8712 45.5805 33.9622C45.5805 34.8196 45.1963 35.4556 44.3872 35.8465C44.2644 35.9062 44.1942 35.9625 44.1914 36.11C44.1754 37.0273 43.824 37.9107 43.1976 38.6083C43.2632 38.7173 43.3667 38.6689 43.4489 38.6698C43.9208 38.6751 44.3937 38.6645 44.8656 38.6751C45.2831 38.6839 45.5786 38.9676 45.5768 39.3322C45.5749 39.6967 45.2785 39.9664 44.8592 39.9857C44.7899 39.9857 44.7206 39.9857 44.6523 39.9857C33.4763 39.9857 22.301 39.9878 11.1263 39.9919C10.7024 39.9919 10.3874 39.8821 10.1861 39.5254V39.1363C10.3884 38.7779 10.6996 38.6619 11.1245 38.6681C12.4027 38.6883 13.6809 38.676 14.9592 38.676H15.3859C14.7273 37.9179 14.3782 37.1141 14.3394 36.1996C14.3311 35.9967 14.1861 36.0477 14.0716 36.0468C13.462 36.0468 12.8516 36.0468 12.2411 36.0468C11.9523 36.0453 11.6671 35.9859 11.404 35.8725C11.141 35.7591 10.906 35.5943 10.7144 35.3888C10.4373 35.1077 10.3136 34.7564 10.1861 34.405L10.1815 16.6482ZM22.1779 16.3223H12.5034C11.7747 16.3223 11.5641 16.5269 11.5641 17.2288V25.1163C11.5641 26.4639 11.5724 27.8114 11.5567 29.1572C11.5567 29.4207 11.6361 29.4875 11.9021 29.4787C12.4424 29.4594 12.9845 29.4699 13.5258 29.4734C14.067 29.4769 14.3256 29.7238 14.3284 30.2438C14.3321 31.0438 14.3321 31.8437 14.3284 32.6437C14.3284 33.1637 14.0679 33.4123 13.5276 33.4167C12.9633 33.4167 12.399 33.4255 11.8347 33.4167C11.6306 33.4123 11.529 33.4563 11.5576 33.668C11.5637 33.7557 11.5637 33.8438 11.5576 33.9315C11.5576 34.4955 11.8079 34.7335 12.3962 34.7362C13.0058 34.7362 13.6172 34.7274 14.2268 34.7405C14.4614 34.7458 14.575 34.6826 14.6839 34.4647C15.4348 32.9652 16.6955 32.1307 18.4448 32.1202C20.2162 32.1087 21.4907 32.9389 22.2554 34.448C22.3709 34.6747 22.4882 34.7441 22.7366 34.7441C25.9384 34.7353 29.1401 34.7353 32.3419 34.7441C32.6319 34.7441 32.727 34.6966 32.7261 34.3927C32.715 28.6623 32.7122 22.9328 32.7178 17.2042C32.7178 16.5349 32.4952 16.3258 31.7831 16.3258L22.1779 16.3223ZM40.9958 24.2133C40.8351 23.9032 40.6947 23.6529 40.5737 23.3946C40.4093 23.0432 40.1424 22.8913 39.7324 22.8939C37.9692 22.9036 36.2061 22.9062 34.4439 22.8939C34.1392 22.8939 34.0939 22.987 34.0958 23.2453C34.1059 25.5362 34.1013 27.8263 34.1013 30.1164C34.1013 31.5527 34.1096 32.9881 34.0939 34.4208C34.0939 34.6887 34.1789 34.7511 34.4412 34.7397C34.903 34.7212 35.3647 34.723 35.8265 34.7397C36.0556 34.7485 36.1563 34.6782 36.2569 34.4761C36.9727 33.0206 38.1863 32.1922 39.8737 32.1228C41.6072 32.0543 42.8947 32.8203 43.7444 34.2592C43.8035 34.3593 43.7915 34.5684 43.9697 34.528C44.1129 34.4955 44.1545 34.3171 44.1859 34.1766C44.198 34.0892 44.2017 34.001 44.1969 33.9131C44.1969 32.9819 44.184 32.0499 44.2053 31.1187C44.2117 30.835 44.1129 30.7832 43.8358 30.784C41.393 30.7946 38.9501 30.7902 36.5072 30.7902C35.6705 30.7902 35.4839 30.6145 35.4839 29.8336V25.1638C35.4839 24.3934 35.6686 24.2133 36.4795 24.2133H40.9958ZM21.6006 38.6487H36.9321C36.3262 37.9653 35.9854 37.2186 35.9226 36.3762C35.9023 36.1039 35.8302 36.0415 35.5458 36.0424C31.3527 36.0518 27.1594 36.0538 22.9657 36.0485C22.9084 36.0485 22.8502 36.0529 22.793 36.0485C22.6803 36.0415 22.6277 36.0802 22.6221 36.1961C22.5805 37.1159 22.2342 37.9179 21.5979 38.6487H21.6006ZM43.7546 29.4734C43.6834 29.3285 43.6419 29.2397 43.5966 29.1537C42.9861 27.9888 42.372 26.8258 41.7661 25.6583C41.6913 25.5152 41.5758 25.5275 41.4502 25.5283C40.0214 25.5283 38.5936 25.5336 37.1657 25.5231C36.9219 25.5231 36.8582 25.5846 36.861 25.8138C36.8739 26.9312 36.8776 28.0486 36.861 29.166C36.861 29.4435 36.9625 29.4804 37.2138 29.4787C38.5271 29.4681 39.8395 29.4734 41.1528 29.4734H43.7546ZM21.2414 36.0679C21.245 35.3697 20.9573 34.6987 20.4413 34.2021C19.9252 33.7055 19.2231 33.424 18.4891 33.4194C17.7609 33.4179 17.0614 33.6891 16.5418 34.1744C16.0223 34.6597 15.7245 35.32 15.7128 36.0125C15.7044 36.7107 15.9877 37.3835 16.5004 37.8832C17.0132 38.383 17.7135 38.6687 18.4475 38.6777C19.1817 38.6836 19.8884 38.412 20.4122 37.9227C20.9361 37.4333 21.2343 36.7662 21.2414 36.0679ZM37.2821 36.038C37.2799 36.5577 37.4397 37.0664 37.7413 37.4997C38.0429 37.9331 38.4728 38.2717 38.9766 38.4728C39.4804 38.6739 40.0356 38.7285 40.5721 38.6297C41.1085 38.5308 41.6021 38.283 41.9905 37.9175C42.379 37.552 42.6448 37.0852 42.7544 36.576C42.8641 36.0669 42.8126 35.5383 42.6065 35.057C42.4005 34.5756 42.0491 34.1632 41.5967 33.8717C41.1443 33.5803 40.6112 33.4228 40.0649 33.4194C39.331 33.4163 38.6258 33.6904 38.1041 34.1813C37.5824 34.6722 37.2867 35.34 37.2821 36.038ZM12.9467 31.4402C12.9467 30.7884 12.9467 30.7884 12.2752 30.7884H12.2364C11.5604 30.7884 11.5604 30.7884 11.5604 31.4359C11.5604 32.1035 11.5604 32.1035 12.2494 32.1035C12.9384 32.1035 12.9467 32.1035 12.9467 31.4402Z" fill="#1D1D1D"/>
<path d="M24.9016 20.2674C23.4987 20.2674 22.0949 20.2674 20.691 20.2674C20.4518 20.2674 20.2292 20.2357 20.0602 20.0618C19.9682 19.9783 19.9042 19.8708 19.8761 19.7529C19.848 19.6349 19.8571 19.5117 19.9023 19.3986C19.9419 19.2771 20.0195 19.1699 20.1248 19.0914C20.23 19.013 20.358 18.9669 20.4915 18.9594C20.6965 18.9409 20.9053 18.9523 21.1122 18.9523H28.9478C29.0513 18.9523 29.1556 18.9523 29.2591 18.9523C29.6562 18.9752 29.9425 19.244 29.9499 19.5954C29.952 19.6833 29.9354 19.7707 29.9011 19.8524C29.8667 19.934 29.8153 20.0082 29.75 20.0704C29.6846 20.1327 29.6067 20.1816 29.5209 20.2144C29.4351 20.2472 29.3432 20.2631 29.2508 20.2612C28.4805 20.2718 27.7093 20.2612 26.9418 20.2612L24.9016 20.2674Z" fill="#1D1D1D"/>
<path d="M26.2869 21.5833C27.229 21.5833 28.1719 21.5833 29.1149 21.5833C29.6349 21.5833 29.96 21.8468 29.9461 22.2553C29.9323 22.6638 29.622 22.8966 29.1149 22.8974C27.229 22.8974 25.343 22.8974 23.4571 22.8974C22.9352 22.8974 22.6138 22.6339 22.6258 22.2263C22.6378 21.8187 22.9472 21.5851 23.4571 21.5833C24.401 21.5815 25.3439 21.5833 26.2869 21.5833Z" fill="#1D1D1D"/>
<path d="M17.7779 20.2657C17.6862 20.2633 17.596 20.2437 17.5123 20.208C17.4286 20.1723 17.3532 20.1213 17.2904 20.0578C17.2276 19.9942 17.1786 19.9195 17.1462 19.8379C17.1138 19.7563 17.0988 19.6694 17.1018 19.5823C17.1113 19.4122 17.1894 19.2523 17.3198 19.1356C17.4502 19.0189 17.6229 18.9546 17.8019 18.956C17.981 18.9607 18.1513 19.0309 18.2774 19.1519C18.4035 19.273 18.4756 19.4356 18.4789 19.606C18.4785 19.6931 18.4601 19.7793 18.4247 19.8597C18.3892 19.94 18.3374 20.0129 18.2723 20.0742C18.2072 20.1355 18.13 20.1839 18.0452 20.2168C17.9603 20.2497 17.8695 20.2663 17.7779 20.2657Z" fill="#1D1D1D"/>
<path d="M18.4686 37.3628C18.1025 37.3598 17.7525 37.219 17.4951 36.9713C17.2378 36.7236 17.094 36.389 17.0952 36.0407C17.0984 35.6933 17.2458 35.361 17.5052 35.1164C17.7647 34.8717 18.1153 34.7345 18.4806 34.7345C18.8461 34.7373 19.1956 34.8773 19.4531 35.1241C19.7105 35.3709 19.8549 35.7045 19.8549 36.0522C19.8529 36.4006 19.706 36.734 19.4462 36.9797C19.1864 37.2253 18.8349 37.363 18.4686 37.3628Z" fill="#1D1D1D"/>
<path d="M40.0612 37.3627C39.7869 37.3664 39.5177 37.2925 39.2876 37.1504C39.0575 37.0084 38.877 36.8046 38.7688 36.5648C38.6606 36.3251 38.6297 36.0602 38.68 35.8037C38.7303 35.5472 38.8595 35.3107 39.0512 35.1241C39.243 34.9376 39.4886 34.8093 39.7571 34.7557C40.0255 34.702 40.3047 34.7254 40.5591 34.8228C40.8136 34.9202 41.0319 35.0873 41.1865 35.3029C41.341 35.5184 41.4248 35.7728 41.4272 36.0337C41.4304 36.3819 41.2885 36.7172 41.0326 36.9663C40.7766 37.2153 40.4274 37.3579 40.0612 37.3627Z" fill="#1D1D1D"/>
</svg>
