<svg width="56" height="54" viewBox="0 0 56 54" fill="none" xmlns="http://www.w3.org/2000/svg">
<rect opacity="0.1" x="0.575317" width="55.2186" height="54" rx="10" fill="#1D1D1D"/>
<path d="M30.5695 10C30.6472 10.0789 30.7583 10.0621 30.8531 10.0887C31.3431 10.2303 31.7752 10.5199 32.088 10.9165C32.4008 11.313 32.5784 11.7962 32.5956 12.2975C32.6138 12.8047 32.4631 13.3039 32.1662 13.7193C31.8693 14.1347 31.4426 14.4437 30.9507 14.5994C30.7041 14.6783 30.6047 14.7768 30.6291 15.0323C30.6558 15.3081 30.6558 15.5858 30.6291 15.8617C30.6029 16.1349 30.6969 16.2342 30.976 16.2901C33.6227 16.8058 36.0571 18.0728 37.9775 19.9341C40.3757 22.2299 41.8029 25.0125 42.2085 28.2849C42.5978 31.4215 41.9655 34.3533 40.3531 37.0827C40.3062 37.1475 40.281 37.225 40.281 37.3045C40.281 37.384 40.3062 37.4615 40.3531 37.5263C40.9023 38.4399 41.4371 39.3598 41.9791 40.2815C42.2026 40.6576 42.3207 41.0851 42.3213 41.5206C42.322 41.9561 42.2052 42.384 41.9828 42.7608C41.7605 43.1376 41.4405 43.4498 41.0554 43.6658C40.6703 43.8817 40.2338 43.9937 39.7904 43.9902C37.2214 43.9902 34.6524 43.9902 32.0843 43.9902C31.7 44.0062 31.3166 43.9428 30.9588 43.804C30.8341 43.7555 30.6972 43.7459 30.5668 43.7765C27.6076 44.2732 24.7405 43.9539 22.0387 42.6659C17.5963 40.5431 14.8503 37.0774 14.0183 32.2873C12.9434 26.0921 16.1266 20.1497 21.8707 17.3847C22.9091 16.8759 24.014 16.5099 25.1542 16.2972C25.4315 16.2467 25.5309 16.1429 25.5047 15.8661C25.4812 15.5904 25.4812 15.3133 25.5047 15.0376C25.52 14.8034 25.4487 14.7058 25.203 14.6313C24.2184 14.3324 23.6358 13.6556 23.4867 12.6576C23.3467 11.7165 23.848 10.7842 24.6881 10.3087C24.9446 10.1641 25.2301 10.1082 25.5011 10H30.5695ZM39.4336 35.9615C39.4824 35.8879 39.5031 35.8613 39.5185 35.832C39.56 35.7539 39.6016 35.675 39.6404 35.596C40.9146 33.0775 41.2906 30.2116 40.7081 27.4582C39.215 20.0823 31.2858 15.5583 24.0594 17.9463C17.917 19.9741 14.2965 25.8854 15.3516 32.1551C16.4437 38.6537 22.7126 43.3152 29.3934 42.6047C29.6075 42.5825 29.6328 42.523 29.5569 42.3385C29.4298 42.0294 29.3839 41.6939 29.4232 41.3628C29.4494 41.1419 29.3735 41.1091 29.1649 41.1277C27.8504 41.2526 26.5238 41.1517 25.2445 40.8297C17.1148 38.761 13.9623 29.172 19.327 22.833C20.7895 21.1051 22.6141 19.8942 24.8209 19.2644C25.4207 19.0932 25.8967 19.4782 25.7712 20.0237C25.6998 20.3342 25.4604 20.4628 25.1768 20.548C19.8952 22.1447 16.9107 27.5034 18.4075 32.7007C19.8031 37.5449 24.801 40.6017 29.8405 39.7004C29.9385 39.6886 30.032 39.6531 30.1126 39.5973C30.1933 39.5414 30.2587 39.4668 30.303 39.3802C31.4258 37.4526 32.5504 35.5251 33.6922 33.6028C34.4663 32.3024 36.1311 31.9493 37.3388 32.8328C37.6234 33.0413 37.6685 32.9278 37.7309 32.6829C38.7398 28.6992 37.6866 25.3204 34.628 22.5421C33.5864 21.6021 32.3322 20.9186 30.9687 20.548C30.6716 20.4655 30.4268 20.3307 30.3599 20.0007C30.2533 19.4525 30.7276 19.087 31.3337 19.2715C34.7879 20.3218 37.2051 22.5244 38.6016 25.7683C39.7949 28.5342 39.7362 31.3435 38.645 34.1404C38.5953 34.2672 38.5014 34.3843 38.5998 34.544C38.878 34.9999 39.1445 35.4656 39.4336 35.9615ZM35.8601 42.6685C37.1329 42.6685 38.4056 42.6685 39.6784 42.6685C40.7705 42.6685 41.2881 41.7815 40.7397 40.8447C39.4751 38.6898 38.2105 36.5369 36.9459 34.3861C36.3913 33.4467 35.3588 33.4387 34.8096 34.3701C33.5341 36.5304 32.262 38.6924 30.9931 40.8563C30.4512 41.7841 30.9805 42.6668 32.0771 42.6685C33.3372 42.6703 34.5982 42.6685 35.8601 42.6685ZM28.0014 13.4027C28.7439 13.4027 29.4864 13.4152 30.228 13.4027C30.5017 13.3965 30.7617 13.2844 30.9516 13.0909C31.1416 12.8974 31.2461 12.6381 31.2424 12.3693C31.2364 12.1075 31.1322 11.857 30.9499 11.6659C30.7676 11.4747 30.5199 11.3563 30.2542 11.3332C29.9832 11.3066 29.8776 11.3696 29.8929 11.6632C29.9119 12.1316 29.6445 12.411 29.2362 12.4146C28.8279 12.4181 28.5362 12.1369 28.5587 11.6792C28.5741 11.3643 28.454 11.2951 28.1776 11.3324C27.9906 11.3581 27.7611 11.2587 27.6247 11.3811C27.5407 11.4565 27.5922 11.6712 27.5696 11.8247C27.5127 12.2088 27.2237 12.4412 26.847 12.4155C26.4911 12.3924 26.2508 12.1351 26.2318 11.7528C26.2246 11.6738 26.2231 11.5943 26.2273 11.5151C26.2391 11.3652 26.1614 11.3377 26.025 11.3288C25.3836 11.2871 24.8453 11.7218 24.8182 12.3143C24.792 12.9255 25.2518 13.3921 25.9112 13.4001C26.6085 13.409 27.3059 13.4027 28.0041 13.4027H28.0014ZM27.9933 14.7333C27.6726 14.7688 27.2706 14.6739 26.8696 14.7795C26.8629 15.1201 26.856 15.461 26.8488 15.8022C26.8497 15.8132 26.8497 15.8241 26.8488 15.8351C26.8289 15.9947 26.8967 16.0497 27.0602 16.0338C27.7209 15.9674 28.3867 15.9674 29.0474 16.0338C29.2209 16.0515 29.2913 16.0036 29.2832 15.8226C29.2705 15.5352 29.2724 15.2469 29.2832 14.9604C29.2895 14.7892 29.2308 14.7236 29.0528 14.7289C28.7295 14.7387 28.4025 14.7316 27.996 14.7316L27.9933 14.7333Z" fill="#1D1D1D"/>
<path d="M27.3896 25.6503C27.3896 24.9655 27.3896 24.2798 27.3896 23.5941C27.3896 23.1426 27.6678 22.8446 28.0662 22.8455C28.4645 22.8463 28.7382 23.1471 28.7391 23.5995C28.7391 24.9708 28.7445 26.3422 28.7391 27.7136C28.7391 27.9132 28.7852 28.0223 28.9839 28.1172C29.4646 28.3362 29.8433 28.7253 30.0443 29.2067C30.2452 29.6882 30.2537 30.2264 30.0679 30.7137C29.8866 31.1959 29.5311 31.5959 29.0692 31.8376C28.6072 32.0794 28.0708 32.1459 27.5621 32.0247C27.0535 31.9036 26.6089 31.6011 26.3148 31.176C26.0206 30.7509 25.8979 30.2336 25.9705 29.7246C26.003 29.4798 25.9344 29.3511 25.7293 29.2154C24.256 28.2397 22.7936 27.2444 21.3248 26.2615C21.0629 26.0841 20.8858 25.873 20.9337 25.5519C21.0087 25.0436 21.5579 24.8263 22.0231 25.1305C22.8839 25.6956 23.7393 26.2748 24.5884 26.8496C25.2509 27.2926 25.9097 27.7361 26.5649 28.1802C26.6877 28.2627 26.7979 28.3576 26.9488 28.2184C27.0996 28.0791 27.423 28.1057 27.4004 27.742C27.3652 27.0448 27.3896 26.3476 27.3896 25.6503ZM28.8349 30.0076C28.8386 29.908 28.8219 29.8087 28.7858 29.7156C28.7497 29.6225 28.6948 29.5375 28.6245 29.4656C28.5542 29.3938 28.4699 29.3366 28.3766 29.2974C28.2833 29.2582 28.183 29.2379 28.0815 29.2376C27.98 29.2346 27.8789 29.2515 27.7841 29.2872C27.6892 29.3229 27.6026 29.3767 27.5291 29.4455C27.4555 29.5143 27.3967 29.5967 27.3558 29.688C27.315 29.7793 27.293 29.8777 27.2911 29.9774C27.2877 30.1789 27.3656 30.3736 27.5077 30.519C27.6498 30.6644 27.8447 30.7487 28.0499 30.7536C28.1513 30.7556 28.2522 30.7378 28.3466 30.7013C28.441 30.6648 28.5271 30.6103 28.5999 30.5409C28.6727 30.4716 28.7308 30.3887 28.7708 30.2972C28.8109 30.2056 28.832 30.1072 28.8331 30.0076H28.8349Z" fill="#1D1D1D"/>
<path d="M28.0384 20.1195C27.9508 20.1185 27.8643 20.1003 27.784 20.0659C27.7036 20.0315 27.6312 19.9817 27.5708 19.9193C27.5104 19.857 27.4634 19.7834 27.4325 19.7029C27.4015 19.6224 27.3873 19.5366 27.3907 19.4507C27.3979 19.2753 27.4757 19.1099 27.6071 18.9908C27.7385 18.8718 27.9126 18.8089 28.0912 18.816C28.2698 18.823 28.4383 18.8995 28.5595 19.0285C28.6807 19.1575 28.7447 19.3285 28.7375 19.5039C28.7334 19.5896 28.7119 19.6736 28.6744 19.7511C28.6369 19.8286 28.5841 19.898 28.5191 19.9553C28.454 20.0126 28.378 20.0566 28.2955 20.0848C28.213 20.113 28.1256 20.1248 28.0384 20.1195Z" fill="#1D1D1D"/>
<path d="M36.5383 37.4376C36.5383 37.8022 36.5456 38.1668 36.5383 38.5313C36.5275 38.9518 36.2673 39.2188 35.8843 39.225C35.5013 39.2312 35.2078 38.9704 35.1978 38.558C35.181 37.8075 35.181 37.0562 35.1978 36.3039C35.2069 35.8897 35.495 35.6245 35.8744 35.6262C36.2709 35.6262 36.5311 35.9003 36.541 36.343C36.5456 36.7076 36.5392 37.0721 36.5383 37.4376Z" fill="#1D1D1D"/>
<path d="M35.8645 41.4817C35.775 41.481 35.6866 41.4629 35.6042 41.4284C35.5219 41.3939 35.4473 41.3438 35.3848 41.2809C35.3223 41.2179 35.2731 41.1434 35.2401 41.0617C35.2071 40.98 35.1909 40.8927 35.1925 40.8048C35.2022 40.6329 35.2777 40.4708 35.4038 40.3511C35.5299 40.2314 35.6973 40.1628 35.8727 40.1591C35.9623 40.1598 36.0508 40.1783 36.133 40.2135C36.2151 40.2488 36.2891 40.2999 36.3506 40.364C36.412 40.4281 36.4596 40.5037 36.4905 40.5863C36.5214 40.669 36.5349 40.7569 36.5303 40.8448C36.5309 40.93 36.514 41.0145 36.4806 41.0932C36.4471 41.1719 36.3979 41.2431 36.3357 41.3026C36.2735 41.3621 36.1997 41.4086 36.1187 41.4394C36.0378 41.4701 35.9513 41.4845 35.8645 41.4817Z" fill="#1D1D1D"/>
</svg>
