<svg width="56" height="54" viewBox="0 0 56 54" fill="none" xmlns="http://www.w3.org/2000/svg">
<rect opacity="0.1" x="0.484573" width="55.2186" height="54" rx="10" fill="#1D1D1D"/>
<path d="M24.5393 11C24.8611 11.0861 25.1928 11.1472 25.5038 11.2582C27.237 11.9012 28.2871 13.1072 28.5025 14.8658C28.7279 16.7104 27.9464 18.1557 26.3132 19.1576C26.2259 19.2014 26.1528 19.2671 26.1018 19.3477C26.0508 19.4282 26.0239 19.5206 26.0238 19.6147C25.9836 20.2241 25.9334 20.8333 25.8733 21.4421C25.8589 21.5317 25.8666 21.6233 25.8959 21.7096C25.9252 21.7958 25.9751 21.8743 26.0419 21.9388C27.0832 23.0062 28.1201 24.0784 29.1524 25.1555C29.2055 25.2175 29.2766 25.2633 29.3567 25.2872C29.4368 25.3111 29.5224 25.312 29.6031 25.2898C29.7942 25.245 29.7067 25.0738 29.7067 24.9627C29.7121 22.2249 29.7121 19.4867 29.7067 16.7483C29.7067 15.7859 30.115 15.3934 31.1119 15.3934C34.0136 15.3934 36.9147 15.3934 39.8153 15.3934C40.795 15.3934 41.2105 15.7894 41.2105 16.7242C41.2105 19.5166 41.2105 22.3086 41.2105 25.1004C41.2105 25.9913 40.7842 26.3916 39.8495 26.3968H38.0414C38.3335 26.9726 38.4281 27.5304 38.246 28.1183C38.1136 28.5666 37.8324 28.9617 37.4448 29.2443C37.0572 29.527 36.584 29.6819 36.0963 29.6858C33.3755 29.6961 30.6543 29.6961 27.9329 29.6858C27.1352 29.6858 26.5043 29.3346 26.0635 28.7037C25.8357 28.4026 25.5917 28.113 25.3325 27.836C25.2902 28.2595 25.2721 28.6107 25.2153 28.9628C25.1559 29.3294 25.2685 29.598 25.5389 29.8769C26.8909 31.2739 28.2024 32.7011 29.5454 34.1033C29.7902 34.3475 29.982 34.6355 30.1098 34.9507C30.2376 35.266 30.2988 35.6023 30.2899 35.9402C30.2719 37.9045 30.2971 39.8706 30.2755 41.8349C30.2656 42.7576 29.777 43.4325 28.8928 43.8C28.0086 44.1676 27.1712 44.0221 26.4448 43.4161C25.9265 42.9857 25.6849 42.4193 25.6849 41.76C25.6849 40.1383 25.6849 38.5166 25.6903 36.8957C25.6948 36.7955 25.6775 36.6955 25.6395 36.602C25.6015 36.5085 25.5436 36.4236 25.4695 36.3525C25.0459 35.9222 24.6376 35.478 24.2257 35.0381C24.1608 34.9693 24.1058 34.8927 23.9976 34.761C23.7615 35.6553 23.547 36.4507 23.3424 37.2486C23.253 37.6151 23.0821 37.9588 22.8412 38.2566C21.5289 39.8663 20.2273 41.4802 18.906 43.0856C18.2957 43.8276 17.4927 44.14 16.5201 43.9214C15.5899 43.7165 15.0077 43.1355 14.7976 42.2532C14.63 41.5508 14.8274 40.9198 15.2925 40.3535C16.4426 38.9504 17.5828 37.5404 18.7329 36.1356C18.8792 35.9603 18.984 35.7568 19.0403 35.5391C19.5117 33.7177 20.0065 31.9015 20.4644 30.0775C20.6383 29.3888 20.6212 28.6701 20.6852 27.9651C20.9159 25.4293 21.1278 22.8943 21.3477 20.3593C21.3468 20.3484 21.3468 20.3374 21.3477 20.3266C21.5036 19.582 21.5 18.8908 20.6645 18.4793C19.4323 17.2105 19.0231 15.7283 19.5639 14.0764C20.1047 12.4246 21.3396 11.4373 23.1098 11.068C23.1846 11.0525 23.2711 11.074 23.3252 11H24.5393ZM32.0205 28.5918C33.3463 28.5918 34.6731 28.5918 35.9999 28.5918C36.602 28.5918 37.0635 28.2328 37.1644 27.712C37.3032 26.995 36.7777 26.4011 35.9855 26.3994C33.7363 26.3953 31.4878 26.3953 29.2398 26.3994C28.9694 26.3994 28.7405 26.346 28.5467 26.1411C27.4056 24.9575 26.2555 23.78 25.1171 22.5921C24.8052 22.2667 24.6214 21.9035 24.716 21.4232C24.8106 20.9429 24.8061 20.441 24.8584 19.9504C24.8791 19.7559 24.8323 19.7163 24.6268 19.7464C24.0595 19.8391 23.4781 19.8165 22.9205 19.6801C22.6294 19.6035 22.5546 19.6646 22.5339 19.9383C22.4437 21.084 22.3446 22.228 22.2445 23.372C22.0525 25.5644 21.8651 27.7577 21.6614 29.9483C21.6322 30.1552 21.6516 30.3656 21.7182 30.5643C21.7848 30.7631 21.8968 30.9452 22.0462 31.0975C23.5425 32.671 25.0206 34.2574 26.5196 35.8318C26.6239 35.9342 26.7056 36.0555 26.7599 36.1885C26.8143 36.3216 26.8401 36.4637 26.836 36.6065C26.8251 38.3134 26.8296 40.0212 26.8314 41.7281C26.8314 42.2446 27.1091 42.6492 27.5687 42.8161C28.3322 43.0942 29.1236 42.5665 29.1263 41.7591C29.1344 39.837 29.1199 37.9157 29.1362 35.9919C29.1433 35.7733 29.1045 35.5555 29.022 35.3515C28.9395 35.1474 28.8149 34.9613 28.6558 34.804C27.1785 33.2546 25.7174 31.6966 24.2482 30.1429C24.1634 30.0647 24.0978 29.9694 24.0564 29.864C24.0149 29.7586 23.9985 29.6457 24.0084 29.5335C24.0697 28.9464 24.0787 28.3507 24.1887 27.7714C24.3311 26.9967 24.2554 26.3081 23.6046 25.7624C23.5973 25.754 23.5907 25.7451 23.5848 25.7357C23.3144 25.3828 23.3144 25.0677 23.6019 24.8586C23.8895 24.6494 24.214 24.7105 24.4907 25.0626C25.0315 25.7512 25.593 26.4214 26.1753 27.0733C26.4546 27.3679 26.715 27.6783 26.9549 28.003C27.0725 28.1925 27.242 28.3478 27.4451 28.4521C27.6483 28.5565 27.8774 28.6059 28.1077 28.5952C29.4111 28.5866 30.7153 28.5926 32.0196 28.5918H32.0205ZM40.0667 20.9196C40.0667 19.5424 40.0613 18.1729 40.0667 16.7991C40.0667 16.5667 40.0163 16.4771 39.7531 16.4866C39.2032 16.5064 38.6516 16.509 38.1018 16.4866C37.8089 16.4746 37.753 16.5727 37.7557 16.8309C37.7701 17.968 37.7557 19.106 37.7638 20.2431C37.7638 20.4867 37.7025 20.6924 37.4709 20.8163C37.2392 20.9403 36.9995 20.8895 36.7777 20.744C36.4172 20.5073 36.044 20.287 35.688 20.0442C35.5267 19.934 35.405 19.9254 35.2373 20.0442C34.9201 20.2654 34.5839 20.4617 34.2603 20.6743C34.0133 20.837 33.7664 20.9876 33.4554 20.8267C33.1589 20.6717 33.1571 20.404 33.1589 20.1268C33.1742 19.0121 33.1607 17.8931 33.1742 16.7741C33.1742 16.5477 33.1057 16.4789 32.8704 16.4849C32.3089 16.4995 31.7465 16.5012 31.1849 16.4849C30.9334 16.4771 30.8613 16.5486 30.8613 16.7913C30.8704 19.528 30.8704 22.2645 30.8613 25.0006C30.8613 25.2459 30.938 25.3019 31.1849 25.3019C34.0392 25.2932 36.8934 25.2932 39.7477 25.3019C40.0289 25.3019 40.0748 25.2106 40.073 24.9722C40.0604 23.6242 40.0658 22.2719 40.0658 20.9196H40.0667ZM27.3984 15.402C27.3995 14.9691 27.3112 14.5403 27.1387 14.1399C26.9662 13.7396 26.7128 13.3757 26.393 13.0689C26.0731 12.7621 25.6932 12.5185 25.2748 12.352C24.8563 12.1854 24.4077 12.0993 23.9544 12.0984C23.0394 12.1004 22.1624 12.4477 21.5144 13.0646C20.8664 13.6815 20.5 14.5179 20.495 15.3917C20.4953 16.2659 20.8586 17.1042 21.5052 17.7229C22.1519 18.3416 23.0291 18.6901 23.9444 18.6919C24.3977 18.6935 24.8469 18.6096 25.2661 18.4449C25.6853 18.2802 26.0663 18.0381 26.3873 17.7324C26.7082 17.4267 26.9627 17.0635 27.1363 16.6635C27.3098 16.2636 27.3989 15.8349 27.3984 15.402ZM21.1972 31.8378C20.8204 33.2649 20.4563 34.6241 20.1047 35.9867C20.0405 36.236 19.9203 36.4689 19.7523 36.6693C18.5698 38.1149 17.3899 39.5621 16.2127 41.0111C16.0514 41.2091 15.9198 41.4157 15.8973 41.673C15.8689 41.9041 15.92 42.1376 16.0429 42.3384C16.1659 42.5392 16.3539 42.6964 16.5787 42.786C17.0988 42.9926 17.6297 42.8523 18.0118 42.384C19.3188 40.7864 20.6224 39.1862 21.9227 37.5835C22.0442 37.4426 22.1332 37.279 22.1841 37.1031C22.4545 36.0633 22.7249 35.0241 22.9953 33.9854C23.0206 33.8899 23.0521 33.8055 22.9674 33.7168C22.395 33.1074 21.8173 32.4945 21.1972 31.8378ZM36.6155 19.3151C36.6155 18.395 36.611 17.5402 36.6155 16.6863C36.6155 16.4909 36.5037 16.4909 36.3586 16.4918C35.7646 16.4918 35.1706 16.5004 34.5767 16.4918C34.3712 16.4918 34.3063 16.5503 34.3063 16.75C34.318 17.3173 34.3108 17.8845 34.3108 18.4518V19.3143C34.6082 19.1275 34.8435 18.9855 35.0706 18.834C35.1818 18.7505 35.319 18.7052 35.4604 18.7052C35.6018 18.7052 35.7391 18.7505 35.8503 18.834C36.0873 18.9829 36.3208 19.1283 36.6155 19.3151Z" fill="#1D1D1D"/>
</svg>
