<svg width="26" height="25" viewBox="0 0 26 25" fill="none" xmlns="http://www.w3.org/2000/svg">
<path d="M8.58641 12.5C8.58641 10.1989 10.4524 8.333 12.7549 8.333C15.0574 8.333 16.9244 10.1989 16.9244 12.5C16.9244 14.8011 15.0574 16.667 12.7549 16.667C10.4524 16.667 8.58641 14.8011 8.58641 12.5ZM6.33246 12.5C6.33246 16.045 9.20778 18.9186 12.7549 18.9186C16.302 18.9186 19.1774 16.045 19.1774 12.5C19.1774 8.955 16.302 6.0814 12.7549 6.0814C9.20778 6.0814 6.33246 8.955 6.33246 12.5ZM17.9307 5.8269C17.9306 6.12357 18.0185 6.41362 18.1833 6.66036C18.3481 6.9071 18.5825 7.09945 18.8567 7.21309C19.1309 7.32673 19.4327 7.35656 19.7238 7.29879C20.015 7.24103 20.2825 7.09828 20.4925 6.88858C20.7025 6.67889 20.8455 6.41167 20.9036 6.12072C20.9616 5.82978 20.932 5.52816 20.8185 5.25403C20.705 4.97989 20.5127 4.74555 20.266 4.58063C20.0192 4.41571 19.7291 4.32762 19.4322 4.3275H19.4316C19.0337 4.32769 18.6521 4.4857 18.3707 4.76683C18.0893 5.04797 17.9311 5.42924 17.9307 5.8269ZM7.70188 22.6747C6.48244 22.6192 5.81965 22.4162 5.37918 22.2447C4.79523 22.0175 4.37858 21.7469 3.94052 21.3097C3.50246 20.8725 3.2313 20.4565 3.00496 19.8729C2.83326 19.4329 2.63013 18.7703 2.5747 17.5516C2.51407 16.234 2.50196 15.8382 2.50196 12.5001C2.50196 9.162 2.51507 8.7673 2.5747 7.4486C2.63023 6.2299 2.83486 5.5686 3.00496 5.1273C3.2323 4.5437 3.50306 4.1273 3.94052 3.6895C4.37798 3.2517 4.79423 2.9807 5.37918 2.7545C5.81945 2.5829 6.48244 2.3799 7.70188 2.3245C9.02027 2.2639 9.4163 2.2518 12.7549 2.2518C16.0935 2.2518 16.4899 2.2649 17.8094 2.3245C19.0289 2.38 19.6906 2.5845 20.1321 2.7545C20.7161 2.9807 21.1327 3.2523 21.5708 3.6895C22.0089 4.1267 22.279 4.5437 22.5064 5.1273C22.6781 5.5673 22.8812 6.2299 22.9366 7.4486C22.9972 8.7673 23.0094 9.162 23.0094 12.5001C23.0094 15.8382 22.9972 16.2329 22.9366 17.5516C22.8811 18.7703 22.677 19.4327 22.5064 19.8729C22.279 20.4565 22.0083 20.8729 21.5708 21.3097C21.1333 21.7465 20.7161 22.0175 20.1321 22.2447C19.6919 22.4163 19.0289 22.6193 17.8094 22.6747C16.491 22.7353 16.095 22.7474 12.7549 22.7474C9.4148 22.7474 9.01987 22.7353 7.70188 22.6747ZM7.59831 0.0757C6.26682 0.1363 5.35697 0.3473 4.56239 0.6563C3.7395 0.9754 3.04288 1.4035 2.34676 2.0981C1.65065 2.7927 1.22339 3.49 0.9041 4.3124C0.594914 5.107 0.383788 6.0158 0.323151 7.3465C0.261514 8.6793 0.247406 9.1054 0.247406 12.5C0.247406 15.8946 0.261514 16.3207 0.323151 17.6535C0.383788 18.9843 0.594914 19.893 0.9041 20.6876C1.22339 21.5095 1.65075 22.2076 2.34676 22.9019C3.04278 23.5962 3.7395 24.0237 4.56239 24.3437C5.35847 24.6527 6.26682 24.8637 7.59831 24.9243C8.93261 24.9849 9.35827 25 12.7549 25C16.1515 25 16.5779 24.9859 17.9115 24.9243C19.2431 24.8637 20.1523 24.6527 20.9474 24.3437C21.7698 24.0237 22.4669 23.5965 23.163 22.9019C23.8592 22.2073 24.2855 21.5095 24.6057 20.6876C24.9149 19.893 25.127 18.9842 25.1867 17.6535C25.2473 16.3197 25.2614 15.8946 25.2614 12.5C25.2614 9.1054 25.2473 8.6793 25.1867 7.3465C25.126 6.0157 24.9149 5.1065 24.6057 4.3124C24.2855 3.4905 23.8581 2.7938 23.163 2.0981C22.468 1.4024 21.7698 0.9754 20.9484 0.6563C20.1523 0.3473 19.243 0.1353 17.9125 0.0757C16.5789 0.0151 16.1525 0 12.7559 0C9.35927 0 8.93261 0.0141 7.59831 0.0757Z" fill="url(#paint0_radial_354_330)"/>
<path d="M8.58641 12.5C8.58641 10.1989 10.4524 8.333 12.7549 8.333C15.0574 8.333 16.9244 10.1989 16.9244 12.5C16.9244 14.8011 15.0574 16.667 12.7549 16.667C10.4524 16.667 8.58641 14.8011 8.58641 12.5ZM6.33246 12.5C6.33246 16.045 9.20778 18.9186 12.7549 18.9186C16.302 18.9186 19.1774 16.045 19.1774 12.5C19.1774 8.955 16.302 6.0814 12.7549 6.0814C9.20778 6.0814 6.33246 8.955 6.33246 12.5ZM17.9307 5.8269C17.9306 6.12357 18.0185 6.41362 18.1833 6.66036C18.3481 6.9071 18.5825 7.09945 18.8567 7.21309C19.1309 7.32673 19.4327 7.35656 19.7238 7.29879C20.015 7.24103 20.2825 7.09828 20.4925 6.88858C20.7025 6.67889 20.8455 6.41167 20.9036 6.12072C20.9616 5.82978 20.932 5.52816 20.8185 5.25403C20.705 4.97989 20.5127 4.74555 20.266 4.58063C20.0192 4.41571 19.7291 4.32762 19.4322 4.3275H19.4316C19.0337 4.32769 18.6521 4.4857 18.3707 4.76683C18.0893 5.04797 17.9311 5.42924 17.9307 5.8269ZM7.70188 22.6747C6.48244 22.6192 5.81965 22.4162 5.37918 22.2447C4.79523 22.0175 4.37858 21.7469 3.94052 21.3097C3.50246 20.8725 3.2313 20.4565 3.00496 19.8729C2.83326 19.4329 2.63013 18.7703 2.5747 17.5516C2.51407 16.234 2.50196 15.8382 2.50196 12.5001C2.50196 9.162 2.51507 8.7673 2.5747 7.4486C2.63023 6.2299 2.83486 5.5686 3.00496 5.1273C3.2323 4.5437 3.50306 4.1273 3.94052 3.6895C4.37798 3.2517 4.79423 2.9807 5.37918 2.7545C5.81945 2.5829 6.48244 2.3799 7.70188 2.3245C9.02027 2.2639 9.4163 2.2518 12.7549 2.2518C16.0935 2.2518 16.4899 2.2649 17.8094 2.3245C19.0289 2.38 19.6906 2.5845 20.1321 2.7545C20.7161 2.9807 21.1327 3.2523 21.5708 3.6895C22.0089 4.1267 22.279 4.5437 22.5064 5.1273C22.6781 5.5673 22.8812 6.2299 22.9366 7.4486C22.9972 8.7673 23.0094 9.162 23.0094 12.5001C23.0094 15.8382 22.9972 16.2329 22.9366 17.5516C22.8811 18.7703 22.677 19.4327 22.5064 19.8729C22.279 20.4565 22.0083 20.8729 21.5708 21.3097C21.1333 21.7465 20.7161 22.0175 20.1321 22.2447C19.6919 22.4163 19.0289 22.6193 17.8094 22.6747C16.491 22.7353 16.095 22.7474 12.7549 22.7474C9.4148 22.7474 9.01987 22.7353 7.70188 22.6747ZM7.59831 0.0757C6.26682 0.1363 5.35697 0.3473 4.56239 0.6563C3.7395 0.9754 3.04288 1.4035 2.34676 2.0981C1.65065 2.7927 1.22339 3.49 0.9041 4.3124C0.594914 5.107 0.383788 6.0158 0.323151 7.3465C0.261514 8.6793 0.247406 9.1054 0.247406 12.5C0.247406 15.8946 0.261514 16.3207 0.323151 17.6535C0.383788 18.9843 0.594914 19.893 0.9041 20.6876C1.22339 21.5095 1.65075 22.2076 2.34676 22.9019C3.04278 23.5962 3.7395 24.0237 4.56239 24.3437C5.35847 24.6527 6.26682 24.8637 7.59831 24.9243C8.93261 24.9849 9.35827 25 12.7549 25C16.1515 25 16.5779 24.9859 17.9115 24.9243C19.2431 24.8637 20.1523 24.6527 20.9474 24.3437C21.7698 24.0237 22.4669 23.5965 23.163 22.9019C23.8592 22.2073 24.2855 21.5095 24.6057 20.6876C24.9149 19.893 25.127 18.9842 25.1867 17.6535C25.2473 16.3197 25.2614 15.8946 25.2614 12.5C25.2614 9.1054 25.2473 8.6793 25.1867 7.3465C25.126 6.0157 24.9149 5.1065 24.6057 4.3124C24.2855 3.4905 23.8581 2.7938 23.163 2.0981C22.468 1.4024 21.7698 0.9754 20.9484 0.6563C20.1523 0.3473 19.243 0.1353 17.9125 0.0757C16.5789 0.0151 16.1525 0 12.7559 0C9.35927 0 8.93261 0.0141 7.59831 0.0757Z" fill="url(#paint1_radial_354_330)"/>
<defs>
<radialGradient id="paint0_radial_354_330" cx="0" cy="0" r="1" gradientUnits="userSpaceOnUse" gradientTransform="translate(3.5708 25.1181) scale(32.655 32.6354)">
<stop offset="0.09" stop-color="#FA8F21"/>
<stop offset="0.78" stop-color="#D82D7E"/>
</radialGradient>
<radialGradient id="paint1_radial_354_330" cx="0" cy="0" r="1" gradientUnits="userSpaceOnUse" gradientTransform="translate(15.4179 26.2381) scale(25.7366 25.7212)">
<stop offset="0.64" stop-color="#8C3AAA" stop-opacity="0"/>
<stop offset="1" stop-color="#8C3AAA"/>
</radialGradient>
</defs>
</svg>
