<svg width="23" height="20" viewBox="0 0 23 20" fill="none" xmlns="http://www.w3.org/2000/svg">
<g clip-path="url(#clip0_2498_126)">
<path fill-rule="evenodd" clip-rule="evenodd" d="M22.2614 20H17.3989V12.969C17.3989 11.129 16.6389 9.8725 14.9659 9.8725C13.6869 9.8725 12.9754 10.7205 12.6444 11.5375C12.5199 11.8305 12.5394 12.239 12.5394 12.6475V20H7.72241C7.72241 20 7.78441 7.5455 7.72241 6.4135H12.5394V8.546C12.8244 7.6135 14.3634 6.283 16.8194 6.283C19.8669 6.283 22.2614 8.237 22.2614 12.4455V20ZM2.85141 4.714H2.81991C1.26791 4.714 0.261414 3.6755 0.261414 2.359C0.261414 1.017 1.29741 0 2.88091 0C4.46291 0 5.43591 1.0145 5.46641 2.355C5.46641 3.6715 4.46291 4.714 2.85141 4.714ZM0.816414 6.4135H5.10441V20H0.816414V6.4135Z" fill="#007EBB"/>
</g>
<defs>
<clipPath id="clip0_2498_126">
<rect width="22" height="20" fill="white" transform="translate(0.261414)"/>
</clipPath>
</defs>
</svg>
