<svg width="21" height="22" viewBox="0 0 21 22" fill="none" xmlns="http://www.w3.org/2000/svg">
<g id="Keyhole Lock Circle">
<path id="Vector (Stroke)" fill-rule="evenodd" clip-rule="evenodd" d="M0.75 11C0.75 5.61522 5.11522 1.25 10.5 1.25C15.8848 1.25 20.25 5.61523 20.25 11C20.25 16.3848 15.8848 20.75 10.5 20.75C5.11523 20.75 0.75 16.3848 0.75 11ZM10.5 2.75C5.94365 2.75 2.25 6.44365 2.25 11C2.25 15.5564 5.94365 19.25 10.5 19.25C15.0564 19.25 18.75 15.5564 18.75 11C18.75 6.44365 15.0564 2.75 10.5 2.75ZM7.67308 9.61539C7.67308 8.05411 8.93873 6.78846 10.5 6.78846C12.0613 6.78846 13.3269 8.05411 13.3269 9.61539C13.3269 10.917 12.4473 12.0131 11.25 12.3417L11.25 14.4615C11.25 14.8758 10.9142 15.2115 10.5 15.2115C10.0858 15.2115 9.75 14.8758 9.75 14.4615L9.75 12.3417C8.55274 12.0131 7.67308 10.917 7.67308 9.61539ZM10.5 8.28846C9.76716 8.28846 9.17308 8.88254 9.17308 9.61539C9.17308 10.3482 9.76716 10.9423 10.5 10.9423C11.2328 10.9423 11.8269 10.3482 11.8269 9.61539C11.8269 8.88254 11.2328 8.28846 10.5 8.28846Z" fill="white"/>
</g>
</svg>
