<svg width="24" height="24" viewBox="0 0 24 24" fill="none" xmlns="http://www.w3.org/2000/svg">
<path fill-rule="evenodd" clip-rule="evenodd" d="M7.50012 4.75C7.50012 4.53125 9.75807 3 12.0001 3C14.2421 3 16.5001 4.53125 16.5001 4.75C16.5001 5.53 16.4173 5.9919 16.347 6.24345C16.3008 6.4085 16.1462 6.5 15.9748 6.5H8.02542C7.85402 6.5 7.69937 6.40845 7.65327 6.2434C7.58292 5.9918 7.50012 5.5299 7.50012 4.75ZM11.2501 4.5C10.974 4.5 10.7501 4.72386 10.7501 5C10.7501 5.27615 10.974 5.5 11.2501 5.5H12.7501C13.0262 5.5 13.2501 5.27615 13.2501 5C13.2501 4.72386 13.0262 4.5 12.7501 4.5H11.2501ZM8.01902 9.609C6.35387 9.0939 6.77407 8.1744 7.40947 7.5H16.7301C17.238 8.1488 17.5106 9.02445 15.9749 9.54865C15.9916 9.6969 16.0001 9.84755 16.0001 10C16.0001 12.2092 14.2092 14 12.0001 14C9.79097 14 8.00012 12.2092 8.00012 10C8.00012 9.8682 8.00652 9.73775 8.01902 9.609ZM11.8638 10C13.1853 10 14.2087 9.9301 14.9941 9.80785C14.9981 9.87135 15.0001 9.9354 15.0001 10C15.0001 11.6568 13.657 13 12.0001 13C10.3433 13 9.00012 11.6568 9.00012 10C9.00012 9.9471 9.00147 9.89455 9.00417 9.84235C9.73537 9.94325 10.6731 10 11.8638 10ZM16.2089 17.2995C15.3195 15.9163 13.7668 15 12.0001 15C10.2328 15 8.67957 15.917 7.79037 17.3011C7.62802 17.0518 7.37662 16.8592 7.06667 16.7761L6.10072 16.5173C5.43392 16.3386 4.74848 16.7344 4.5698 17.4012L4.18158 18.8501C4.0029 19.5169 4.39863 20.2024 5.06547 20.3811L6.03137 20.6399C6.37297 20.7314 6.71937 20.6722 7.00012 20.503C7.00177 20.7778 7.22497 21 7.50012 21C7.77622 21 8.00012 20.7761 8.00012 20.5V20C8.00012 19.8095 8.01342 19.6221 8.03917 19.4387L10.6412 20.1359C10.8805 20.6464 11.399 21 12.0001 21C12.6012 21 13.1198 20.6464 13.3591 20.1359L15.961 19.4387C15.9868 19.6221 16.0001 19.8095 16.0001 20V20.5C16.0001 20.7761 16.224 21 16.5001 21C16.7746 21 16.9975 20.7788 17.0001 20.5048C17.2804 20.6729 17.6259 20.7315 17.9666 20.6402L18.9325 20.3815C19.5994 20.2028 19.9951 19.5173 19.8164 18.8505L19.4282 17.4016C19.2495 16.7348 18.5641 16.339 17.8973 16.5177L16.9313 16.7766C16.6221 16.8594 16.3712 17.0512 16.2089 17.2995ZM8.30162 18.4737C8.84057 17.1691 10.0498 16.2118 11.5001 16.031V18.0854C11.0479 18.2451 10.6953 18.6157 10.56 19.0788L8.30162 18.4737ZM15.6986 18.4737C15.1596 17.1691 13.9504 16.2118 12.5001 16.031V18.0854C12.9523 18.2451 13.3049 18.6157 13.4402 19.0788L15.6986 18.4737ZM12.0001 20C12.2762 20 12.5001 19.7761 12.5001 19.5C12.5001 19.2239 12.2762 19 12.0001 19C11.724 19 11.5001 19.2239 11.5001 19.5C11.5001 19.7761 11.724 20 12.0001 20Z" fill="#333333"/>
</svg>
