<svg width="27" height="25" viewBox="0 0 27 25" fill="none" xmlns="http://www.w3.org/2000/svg">
<path d="M25.0589 7.19262C24.4237 5.78893 23.5118 4.52869 22.354 3.44262C21.1962 2.3668 19.854 1.51639 18.3581 0.922131C16.811 0.307377 15.1716 0 13.481 0C11.7905 0 10.1511 0.307377 8.60398 0.922131C7.10808 1.51639 5.76587 2.35656 4.60808 3.44262C3.45029 4.52869 2.53842 5.78893 1.90317 7.19262C1.24744 8.64754 0.909302 10.2049 0.909302 11.8033C0.909302 14.6004 1.95437 17.2848 3.87036 19.416L2.84577 25L8.29661 22.5717C9.9257 23.2684 11.6573 23.6168 13.4708 23.6168C15.1614 23.6168 16.8007 23.3094 18.3478 22.6947C19.8437 22.1004 21.186 21.2602 22.3437 20.1742C23.5015 19.0881 24.4134 17.8279 25.0487 16.4242C25.7044 14.9693 26.0425 13.4119 26.0425 11.8135C26.0528 10.2049 25.7146 8.65779 25.0589 7.19262Z" fill="#4CAF50"/>
<path d="M18.5835 14.1596C18.0507 13.8932 17.6614 13.7293 17.3848 13.6268C17.2106 13.5654 16.8007 13.3809 16.6573 13.4936C16.2065 13.8625 15.7249 14.9076 15.2126 15.1022C13.9421 14.8563 12.7639 13.9854 11.8417 13.094C11.4319 12.7047 10.6737 11.5981 10.5098 11.301C10.479 10.9936 11.0323 10.5838 11.1552 10.3481C11.7905 9.63093 11.3089 9.18011 11.227 8.88298C11.0835 8.5756 10.8376 8.02233 10.6225 7.57151C10.4381 7.27438 10.397 6.8338 10.0692 6.66987C8.67572 5.95265 7.87658 7.38708 7.54871 8.13503C5.57125 12.8994 17.4565 21.967 19.8745 15.717C19.9975 15.174 19.9462 14.969 19.7618 14.7231C19.3929 14.467 18.9626 14.3543 18.5835 14.1596Z" fill="white"/>
</svg>
