<svg width="29" height="28" viewBox="0 0 29 28" fill="none" xmlns="http://www.w3.org/2000/svg">
<g clip-path="url(#clip0_2498_132)">
<path fill-rule="evenodd" clip-rule="evenodd" d="M27.0714 7.105C26.3119 5.754 25.4877 5.5055 23.8094 5.411C22.1329 5.29725 17.9172 5.25 14.2649 5.25C10.6057 5.25 6.38816 5.29725 4.71341 5.40925C3.03866 5.5055 2.21266 5.75225 1.44616 7.105C0.663914 8.45425 0.261414 10.7782 0.261414 14.8697V14.8837C0.261414 18.9578 0.663914 21.2992 1.44616 22.6345C2.21266 23.9855 3.03691 24.2305 4.71166 24.3442C6.38816 24.4423 10.6057 24.5 14.2649 24.5C17.9172 24.5 22.1329 24.4422 23.8112 24.346C25.4894 24.2323 26.3137 23.9873 27.0732 22.6363C27.8624 21.301 28.2614 18.9595 28.2614 14.8855V14.8715C28.2614 10.7783 27.8624 8.45425 27.0714 7.105Z" fill="#F44336"/>
<path fill-rule="evenodd" clip-rule="evenodd" d="M10.7614 20.125V9.625L19.5114 14.875L10.7614 20.125Z" fill="#FAFAFA"/>
</g>
<defs>
<clipPath id="clip0_2498_132">
<rect width="28" height="28" fill="white" transform="translate(0.261414)"/>
</clipPath>
</defs>
</svg>
